# xmcd CD database file
# Copyright (C) 1993-1998 Ti Kan
# 
# Track frame offsets:
#     150
#     16217
#     32125
#     52875
#     73870
#     117725
#     136517
#     160102
#     180170
#     201245
#     216052
#     238440
#     260630
#     281322
#     300097
#     317300
# 
# Disc length: 4560 seconds
# 
# Revision: 1
# Processed by: cddbd v1.4b41PL1 Copyright (c) Steve Scherf et al.
# Submitted via: DiscPlay 4.0.4
# 
DISCID=d511ce10
DTITLE=The Bushwackers - Jubilee
DYEAR=1900
DGENRE=
TTITLE0=Poor Ned
TTITLE1=Flash Jack from Gundagai
TTITLE2=When the Rain Tumbles down in July
TTITLE3=Beneath the Southern Cross
TTITLE4=The Ballad of 1891
TTITLE5=Past Carin'
TTITLE6=Battler's Ballad
TTITLE7=Henry's Men
TTITLE8=Woolloomooloo Lair
TTITLE9=Billy of Tea
TTITLE10=Fannie Bay
TTITLE11=1-2-3-4
TTITLE12=When Brittannia Ruled the Waves
TTITLE13=Waltzing Matilda
TTITLE14=Limejuice Tub
TTITLE15=Ned Kelly's Tunes
EXTD=
EXTT0=
EXTT1=
EXTT2=
EXTT3=
EXTT4=
EXTT5=
EXTT6=
EXTT7=
EXTT8=
EXTT9=
EXTT10=
EXTT11=
EXTT12=
EXTT13=
EXTT14=
EXTT15=
PLAYORDER=
